PathFileType	3	(X/Y/Z)	C:\Users\koon_\Desktop\
DataRate	CameraRate	NumFrames	NumMarkers	Units	OrigDataRate	OrigDataStartFrame	OrigNumFrames
100.0	100.0	12	27	mm	100.0	2829	4526	
Frame#	Time	GM:LFHD			GM:RFHD			GM:LBHD			GM:RBHD			GM:C7			GM:T10			GM:CLAV			GM:STRN			GM:RBAK			GM:LSHO			GM:LUPA			GM:LELB			GM:LFRA			GM:LWRA			GM:LWRB			GM:LFIN			GM:RSHO			GM:RUPA			GM:RELB			GM:RFRA			GM:RWRA			GM:RWRB			GM:RFIN			GM:LASI			GM:RASI			GM:LPSI			GM:RPSI			
		X1	Y1	Z1	X2	Y2	Z2	X3	Y3	Z3	X4	Y4	Z4	X5	Y5	Z5	X6	Y6	Z6	X7	Y7	Z7	X8	Y8	Z8	X9	Y9	Z9	X10	Y10	Z10	X11	Y11	Z11	X12	Y12	Z12	X13	Y13	Z13	X14	Y14	Z14	X15	Y15	Z15	X16	Y16	Z16	X17	Y17	Z17	X18	Y18	Z18	X19	Y19	Z19	X20	Y20	Z20	X21	Y21	Z21	X22	Y22	Z22	X23	Y23	Z23	X24	Y24	Z24	X25	Y25	Z25	X26	Y26	Z26	X27	Y27	Z27	
2829	28.28	90.339493	1590.7456	-100.78223	-62.041546	1582.8044	-82.181404	74.457146	1589.5642	-233.03047	-84.852043	1582.2582	-195.68365	12.920831	1411.0787	-289.80362	24.317612	1205.845	-307.75647	25.207258	1370.3442	-132.00615	30.091856	1233.1812	-63.631081	-64.958443	1276.7249	-322.78458	189.53183	1402.2683	-223.23882	261.21887	1299.4978	-208.81102	295.51041	1089.1633	-231.95622	264.36978	984.55048	-129.04733	264.14944	917.94104	-96.156158	309.17981	893.74805	-139.68791	273.16321	833.03564	-64.749535	-128.74043	1405.6238	-248.73315	-307.28363	1429.3375	-198.33313	-402.88531	1421.944	-158.08513	-408.12186	1514.8051	-163.49254	-485.78293	1614.1614	-122.12843	-511.52182	1588.326	-73.288101	-561.47015	1662.6201	-97.586853	150.91104	900.68396	-86.82563	-140.50035	913.26776	-78.131844	76.160835	942.56726	-295.69495	-85.326004	930.69684	-291.53116
2830	28.29	90.184586	1590.582	-100.4996	-62.254478	1582.5776	-81.660591	73.964745	1589.6476	-232.73495	-85.408371	1582.5511	-196.16904	12.420448	1411.2014	-289.87122	23.561296	1205.7554	-307.71594	24.970346	1370.4834	-132.22046	29.865763	1233.5197	-63.647793	-65.843948	1276.7756	-322.0824	189.07404	1402.0416	-223.85202	260.74643	1299.2773	-209.45662	295.12534	1088.974	-232.36298	264.08923	984.37988	-129.35301	263.90808	917.74384	-96.486076	309.03815	893.51917	-140.07912	273.01117	832.85168	-65.144279	-128.21152	1406.4674	-249.09354	-305.41708	1435.0627	-199.91957	-401.66086	1430.7926	-159.60176	-403.11325	1523.8068	-166.45496	-476.45178	1626.9607	-126.48514	-503.28915	1602.988	-77.37011	-549.72131	1679.3895	-102.72054	150.64673	900.78357	-86.781761	-140.80127	913.20288	-77.888367	75.689133	942.50793	-295.64328	-85.80574	930.6994	-291.40048
2831	28.3	90.048981	1590.3757	-100.1961	-62.257816	1582.2026	-80.916176	73.474152	1589.7689	-232.31802	-85.372719	1581.9937	-193.29054	11.963061	1411.2834	-289.91464	22.792763	1205.6812	-307.62549	24.799557	1370.6492	-132.43134	29.676077	1233.8385	-63.634418	-66.686493	1276.816	-321.41107	188.5748	1401.8469	-224.51222	260.23782	1299.0541	-210.20903	294.50201	1088.7286	-232.81363	263.81882	984.29584	-129.68204	263.61639	917.59308	-96.906105	308.54053	893.43439	-140.5929	272.80795	832.70923	-65.447441	-127.57928	1407.5529	-249.75893	-303.3237	1440.7852	-201.52692	-400.12549	1439.7512	-161.31157	-397.70325	1532.796	-169.57811	-466.87103	1639.5809	-130.77586	-494.22327	1617.5406	-81.708412	-537.01929	1695.9434	-108.00431	150.24727	900.89294	-86.700645	-141.15541	913.20422	-77.679596	75.212013	942.52612	-295.69177	-86.220306	930.68506	-291.30313
2832	28.31	89.983437	1590.1445	-99.862106	-62.219017	1581.7765	-80.098511	72.948814	1589.8881	-231.86856	-85.713966	1581.859	-192.40028	11.506636	1411.4126	-289.9516	22.000319	1205.6482	-307.53989	24.599125	1370.8271	-132.62415	29.469675	1234.2048	-63.638874	-67.577446	1276.8788	-320.70471	188.07776	1401.6265	-225.17969	259.69815	1298.8381	-210.99811	293.55408	1088.4608	-233.46104	263.46677	984.14142	-130.15366	263.25916	917.42725	-97.299904	308.16953	893.27966	-141.01328	272.60385	832.57678	-65.813179	-126.91264	1408.9985	-250.84523	-301.02264	1446.5288	-203.13072	-398.27603	1448.7445	-163.04935	-391.93185	1541.6499	-172.8457	-455.93149	1651.978	-135.56947	-484.62833	1631.96	-86.21624	-523.32446	1712.2151	-113.74096	149.87798	901.00458	-86.698174	-141.45439	913.20544	-77.496384	74.71183	942.51959	-295.42322	-86.677917	930.62848	-291.12106
2833	28.32	89.948044	1589.8759	-99.447189	-62.399277	1581.2593	-79.171852	72.505241	1590.0114	-231.41777	-86.056908	1581.7943	-191.33504	11.054717	1411.5631	-289.98376	21.10326	1205.5417	-307.38284	24.354799	1370.9949	-132.77464	29.218113	1234.5499	-63.722969	-68.477791	1277.001	-320.10208	187.54683	1401.3898	-225.85632	259.11868	1298.5764	-211.76129	292.8392	1088.2192	-234.17067	262.97311	983.86847	-130.74637	262.91583	917.25446	-97.68969	307.74298	893.15546	-141.4883	272.3598	832.44128	-66.210861	-126.45586	1409.5078	-250.72801	-298.56775	1452.2443	-204.82243	-396.17587	1457.7783	-164.95837	-385.80762	1550.3337	-176.23874	-445.29706	1663.8445	-140.32983	-474.18259	1646.1252	-90.994301	-509.06165	1728.0908	-119.61998	149.46121	901.09399	-86.683342	-141.7933	913.21387	-77.214439	74.172844	942.54669	-295.42075	-87.222313	930.58197	-290.99863
2834	28.33	89.941292	1589.5643	-99.035141	-62.200211	1580.814	-78.22123	72.020584	1590.0867	-230.94409	-86.438339	1581.6624	-190.49252	10.533313	1411.7322	-289.91272	20.207592	1205.5072	-307.23349	24.221071	1371.2307	-132.92345	28.938885	1234.9572	-63.745296	-69.400101	1277.1599	-319.48788	187.03711	1401.1531	-226.522	258.52454	1298.3015	-212.64714	292.2627	1087.9938	-234.91365	262.89267	983.43005	-131.44409	262.55276	917.10956	-98.128593	307.25723	892.97205	-141.99181	272.06387	832.29065	-66.60672	-125.64149	1410.7631	-251.54179	-295.92673	1457.9083	-206.5159	-393.75571	1466.8903	-166.96199	-379.42813	1558.8529	-179.6317	-432.74091	1675.5743	-146.1712	-463.02631	1659.9216	-96.114235	-493.42401	1743.6487	-125.91286	149.06181	901.09381	-86.696487	-142.24571	913.19318	-77.059502	73.637367	942.5799	-295.35999	-87.762558	930.53717	-290.89005
2835	28.34	89.926804	1589.1948	-98.571274	-61.974663	1580.3438	-77.163727	71.502167	1590.2518	-230.41072	-86.728317	1581.5394	-189.14496	9.9937439	1411.9235	-289.87265	19.250931	1205.4781	-307.13876	24.02446	1371.4315	-133.05226	28.719828	1235.3751	-63.717285	-70.320374	1277.3398	-318.87292	186.49629	1400.8997	-227.17831	257.9491	1298.0564	-213.53436	291.43948	1087.6674	-235.56293	262.41727	983.49878	-132.00891	262.16354	916.95911	-98.611671	306.70834	892.75116	-142.5836	271.71683	832.18048	-66.95015	-125.09297	1411.5372	-251.8698	-292.97037	1463.5747	-208.30511	-391.12112	1475.9458	-168.98196	-372.55756	1567.106	-183.32083	-420.39084	1686.6759	-151.94478	-451.31094	1673.41	-101.44456	-476.85159	1758.7783	-132.78647	148.6225	901.10931	-86.759125	-142.53598	913.19324	-76.838638	73.048256	942.59277	-295.33914	-88.33094	930.49274	-290.75769
2836	28.35	89.904068	1588.8805	-97.966454	-61.867432	1579.839	-76.139397	70.987663	1590.3594	-229.73987	-87.052475	1581.3453	-188.04225	9.4583616	1412.1134	-289.80063	18.325119	1205.4427	-306.98923	23.808544	1371.6318	-133.22441	28.4673	1235.7578	-63.728825	-71.225967	1277.4647	-318.18152	185.90776	1400.6621	-227.90633	257.32468	1297.7301	-214.34277	290.30939	1087.2897	-236.39827	261.9292	983.33948	-132.48387	261.7113	916.82422	-99.108063	306.06622	892.5307	-143.22336	271.33755	832.0166	-67.416107	-124.27856	1412.847	-252.67332	-289.84094	1469.2096	-210.28049	-388.14026	1484.9219	-171.14557	-365.42929	1575.0775	-187.11008	-408.1044	1697.3801	-157.48393	-438.95361	1686.4988	-107.19171	-459.3382	1773.1953	-139.92276	148.23912	901.06335	-86.871872	-142.87325	913.21698	-76.575645	72.442482	942.58234	-295.30511	-88.938568	930.49487	-290.64685
2837	28.36	89.94191	1588.4976	-97.396919	-61.717743	1579.2723	-74.840836	70.425262	1590.5132	-229.09439	-87.375275	1581.1913	-186.6216	8.9034147	1412.3295	-289.77023	17.364906	1205.4214	-306.7756	23.561634	1371.866	-133.33504	28.22579	1236.1296	-63.739292	-72.152458	1277.6819	-317.52216	185.33563	1400.4011	-228.58658	256.67252	1297.4346	-215.28108	289.71066	1087.0208	-237.16397	261.55624	983.19098	-133.01381	261.30215	916.70959	-99.579666	305.40167	892.26831	-143.91409	270.88168	831.83423	-67.908569	-123.66292	1413.5531	-252.97299	-286.51041	1474.665	-212.12773	-384.8017	1493.8651	-173.40099	-358.02869	1582.6875	-190.96712	-394.5661	1707.4419	-163.897	-425.87177	1699.0431	-113.28064	-440.95154	1786.7821	-147.5103	147.85051	900.9989	-86.978203	-143.25084	913.21344	-76.361961	71.819633	942.60779	-295.23779	-89.579643	930.50464	-290.46024
2838	28.37	89.959389	1588.0978	-96.850861	-61.375473	1578.64	-73.480797	69.822456	1590.6354	-228.44724	-87.721649	1580.9939	-185.18309	8.3126917	1412.5995	-289.64993	16.366871	1205.4199	-306.68451	23.2321	1372.0814	-133.44455	28.018442	1236.5355	-63.697979	-73.118034	1277.8715	-316.78775	184.73361	1400.1749	-229.32224	256.02756	1297.1295	-216.28519	288.77155	1086.6531	-238.10333	260.97391	982.98999	-133.68884	260.77716	916.50189	-100.1152	304.64212	891.97589	-144.66698	270.42615	831.65137	-68.409668	-122.75806	1414.8245	-253.81007	-283.08481	1480.0034	-214.04979	-381.33493	1502.7124	-175.75615	-350.34634	1589.877	-194.93497	-380.31488	1716.772	-170.37538	-412.19434	1711.0508	-119.63425	-421.77783	1799.3958	-155.39081	147.51584	900.96173	-87.134758	-143.55226	913.23987	-76.110565	71.16317	942.58978	-295.13586	-90.25956	930.51221	-290.23315
2839	28.38	90.039284	1587.6951	-96.215759	-61.091885	1577.7217	-72.021889	69.110153	1590.7654	-227.74933	-88.120232	1580.7793	-183.7063	7.725461	1412.8524	-289.49103	15.381731	1205.4229	-306.47778	23.006966	1372.2698	-133.51079	27.739038	1236.925	-63.569122	-74.047401	1278.1044	-316.01074	184.08342	1399.9001	-229.94528	255.37404	1296.7932	-217.22903	287.45331	1086.2615	-238.96419	260.17477	982.66595	-134.51181	260.28113	916.22455	-100.73741	303.89227	891.63647	-145.39819	269.93027	831.47504	-68.99054	-122.05219	1415.8008	-254.38884	-279.47443	1485.2103	-216.01877	-377.58447	1511.5078	-178.1335	-342.34033	1596.7352	-199.14168	-365.89517	1725.5619	-176.9839	-397.84467	1722.4437	-126.25013	-401.85843	1810.8671	-163.72353	147.08954	900.94501	-87.308327	-143.80966	913.24011	-75.825089	70.448189	942.59509	-295.09015	-90.869507	930.56903	-290.03357
2840	28.39	90.08709	1587.2996	-95.616173	-60.829193	1576.9883	-70.708397	68.423843	1590.975	-226.9169	-88.528198	1580.5022	-181.81183	7.08709	1413.124	-289.32333	14.401978	1205.3942	-306.10678	22.732515	1372.4232	-133.5545	27.443769	1237.3051	-63.59528	-74.96843	1278.3986	-315.40475	183.40967	1399.6769	-230.64487	254.65312	1296.495	-218.22592	286.76965	1085.9362	-239.80103	259.53864	982.3869	-135.11432	259.66833	916.04462	-101.44805	303.11792	891.21204	-146.19333	269.37451	831.30988	-69.541298	-121.45411	1416.6228	-254.87596	-275.75641	1490.3768	-218.20187	-373.55554	1520.1252	-180.57219	-334.13263	1603.2172	-203.29181	-350.8338	1733.5339	-183.76141	-382.98962	1733.1057	-133.07611	-381.37857	1821.2043	-172.3856	146.675	900.95123	-87.472504	-144.04015	913.23511	-75.577896	69.812813	942.60663	-295.07397	-91.542656	930.60455	-289.88086
